<svg xmlns="http://www.w3.org/2000/svg" viewBox="0 0 16 16">
  <path transform="matrix(1,0,0,-1,6.5,7)" d="M0 0C0 .828 .672 1.5 1.5 1.5V2.5C.119 2.5-1 1.381-1 0-1-1.381 .119-2.5 1.5-2.5 2.881-2.5 4-1.381 4 0H3C3-.828 2.328-1.5 1.5-1.5 .672-1.5 0-.828 0 0M1.5 6C-1.814 6-4.5 3.388-4.5 .167-4.5-3.015-1.005-6.043 .773-7.583V-7.584C.876-7.673 .973-7.757 1.064-7.836 1.185-7.942 1.339-8 1.5-8 1.661-8 1.815-7.942 1.936-7.836 2.027-7.757 2.124-7.673 2.227-7.583 4.005-6.043 7.5-3.015 7.5 .167 7.5 3.388 4.814 6 1.5 6M-3.5 .167C-3.5 2.81-1.288 5 1.5 5 4.288 5 6.5 2.81 6.5 .167 6.5-1.15 5.719-2.558 4.574-3.91 3.573-5.093 2.415-6.097 1.574-6.826L1.5-6.89 1.426-6.826C.585-6.097-.573-5.093-1.574-3.91-2.719-2.558-3.5-1.15-3.5 .167" fill="currentColor" fill-rule="evenodd"/>
</svg>
